<svg xmlns="http://www.w3.org/2000/svg" version="1.1" xmlns:xlink="http://www.w3.org/1999/xlink" width="2000" height="67" viewBox="0 0 2000 67"><svg xml:space="preserve" width="2000" height="67" data-version="2" data-id="lg_x2k5BWwtZa3hImHI2H" viewBox="0 0 569 67" x="0" y="0"><rect width="100%" height="100%" fill="transparent"></rect><path fill="#303030" d="M150.19 49.922v-13.64q.18.03 1.68.52t3.65 1.1q2.14.61 4.3 1.08 2.16.46 3.68.46 1.31 0 2.15-.39.83-.39.83-1.43 0-1.13-1.19-2.05-1.19-.93-3.05-1.91-1.87-.98-3.97-2.24-2.1-1.25-3.96-3-1.86-1.76-3.05-4.22-1.19-2.46-1.19-5.88 0-4.2 1.76-7.1 1.75-2.91 4.72-4.68 2.96-1.77 6.67-2.58 3.71-.8 7.61-.8 3.3 0 6.25.36 2.95.35 4.99.77 2.04.42 2.58.57v13.67l-1.24-.27q-1.23-.27-3.1-.6-1.86-.32-3.84-.59-1.98-.27-3.47-.27-1.37 0-2.05.48-.69.47-.69 1.13 0 .53.6 1.18.59.64 1.43.99 3.13 1.37 5.9 2.8 2.77 1.43 4.88 3.31 2.11 1.88 3.32 4.57 1.21 2.7 1.21 6.6 0 4.65-2.34 8.1-2.34 3.46-6.73 5.36-4.4 1.91-10.59 1.91-5.33 0-8.79-.51-3.45-.51-5.42-1.15-1.96-.64-2.75-1.14zm59.42 2.15h-21.03l23.65-45.16q.86-1.64 2.68-2.54 1.81-.91 3.78-.91 1.76 0 3.44.8 1.68.81 2.61 2.47l25.37 45.34h-24.15l-1.88-4.71h-12.87zm8.13-27.02-5.07 12.87h9.62zm34.22 27.021V4.503h6.82l22.99 21.59 23.62-21.59h6.58v47.57H292.4v-15.43l-12.15 13.34-11.82-12.99v15.08zm88.34-48.91q8.31 0 13.47 1.96 5.17 1.97 7.58 6.23 2.42 4.26 2.42 11.2 0 4.65-1.75 8.5-1.74 3.86-4.81 6.66-3.06 2.8-7.13 4.33-4.07 1.54-8.71 1.54-1.19 0-2.46-.06t-2.84-.06v8.61h-19.45V4.623q6.94-.69 12.8-1.07 5.87-.39 10.88-.39m3.15 12.36q-1.04 0-2.34.54-1.29.53-2.47 1.23-1.17.7-1.93 1.24l-.76.53v11.23l3.48-1.69q3.01-1.49 5.2-3.68 2.19-2.19 2.19-5.68 0-1.49-.88-2.6-.88-1.12-2.49-1.12m22.64 36.55V4.503h34.28v13.7h-15.76v3.9h15.7v11.68h-15.7v4.5h16.8v13.79zm39.7 0V4.503l1.78-.13q1.79-.14 4.68-.35 2.89-.21 6.28-.4 3.4-.19 6.69-.33 3.29-.13 5.82-.13 5.84 0 10.13 2.2 4.29 2.21 7.09 5.89 2.8 3.67 4.17 8.13 1.37 4.45 1.37 8.95 0 5.6-1.91 10.01-1.9 4.4-5.31 7.47-3.41 3.07-8.01 4.66-4.61 1.6-9.97 1.6zm18.52-32.47v18.14q1.58-1.34 3.4-2.68 1.82-1.34 3.44-2.86 1.62-1.52 2.65-3.41 1.03-1.89 1.03-4.36 0-1.64-.69-3.34-.68-1.7-1.98-2.84-1.29-1.15-3.2-1.15-1.37 0-2.58.74-1.2.75-2.07 1.76m52.15 32.47h-19.45V4.503l1.87-.13q1.86-.14 4.88-.35 3.02-.21 6.61-.4 3.59-.19 7.12-.33 3.53-.13 6.3-.13 5.78 0 9.8 1.5 4.02 1.51 6.49 3.98 2.48 2.47 3.62 5.45 1.15 2.98 1.15 5.96 0 5.21-2.65 8.95-2.65 3.74-6.76 6.18l12.92 16.89h-23.53l-8.37-13.79zm-.12-34.11v11.65q5.78-2.15 8.3-4.66 2.52-2.52 2.52-5.41 0-2.41-.9-3.31-.89-.89-2.23-.89-.86 0-1.79.28-.92.29-1.93.7zm60.05 35.269q-5.04 0-9.76-1.77-4.72-1.78-8.49-5.08-3.76-3.31-5.97-7.94-2.2-4.63-2.2-10.35 0-5.6 2.07-10.19 2.07-4.58 5.73-7.89 3.67-3.31 8.45-5.08 4.78-1.77 10.17-1.77 5.66 0 10.56 1.71t8.57 4.98q3.68 3.26 5.75 7.92t2.07 10.56q0 5.72-2.17 10.32-2.18 4.6-5.96 7.85-3.78 3.24-8.62 4.99-4.84 1.74-10.2 1.74m-2.09-15.49q1.58 0 3.37-1.53 1.79-1.54 3.36-3.92 1.58-2.38 2.58-5.03 1-2.66 1-4.89 0-2.08-1.1-3.45-1.11-1.37-3.73-1.37-1.6 0-3.44 1.5-1.83 1.5-3.42 3.87-1.6 2.37-2.61 5.01-1.01 2.63-1.01 4.87 0 2.14 1.15 3.54 1.14 1.4 3.85 1.4"></path><rect width="100" height="50.38" x="-50" y="-25.19" fill="#303030" rx="7" ry="7" transform="translate(75.538 33.72)scale(1.1173)"></rect><path fill="#ffffff" d="M59.039.372 97.28 33.524 59.039 66.676H33.752l29.117-25.204H5.66V25.4h56.997L33.706.324z"></path><circle r="7.829" fill="#ffffff" transform="translate(111.919 33.72)scale(1.1173)"></circle></svg></svg>